<svg width="9935" height="6306" viewBox="0 0 9935 6306" fill="none" xmlns="http://www.w3.org/2000/svg">
<path d="M9935 0H0V6306H9935V0Z" fill="#FFA800"/>
<path d="M9935 0H0V6306H9935V0Z" fill="#FD5C00"/>
<path d="M9935 2837.7C9672.14 2820.18 9408.24 2802.67 9157.79 2698.73C8907.35 2594.8 8669.32 2403.29 8554.45 2144.04C8438.54 1885.96 8446.82 1560.15 8285.38 1352.29C8124.97 1144.42 7794.84 1053.34 7622.01 847.807C7449.18 642.278 7434.69 321.139 7420.2 0H9935V2837.7Z" fill="#C84900"/>
<path d="M0 4256C153.263 4421.35 307.274 4587.54 476.237 4653.35C644.453 4719.15 829.117 4685.4 1010.79 4736.02C1192.46 4787.48 1371.89 4922.46 1469.83 5101.31C1567.77 5279.31 1584.22 5501.19 1628.33 5708.72C1672.44 5917.09 1744.96 6111.12 1816.73 6306H0V4256Z" fill="#B54200"/>
</svg>
