<svg width="9956" height="8176" viewBox="0 0 9956 8176" fill="none" xmlns="http://www.w3.org/2000/svg">
<g clip-path="url(#clip0_23_176)">
<path d="M0 666.193L207.417 790.347C414.833 912.987 829.667 1161.29 1244.5 1215.8C1659.33 1271.82 2074.17 1135.56 2489 1052.28C2903.83 969.007 3318.67 938.726 3733.5 950.839C4148.33 964.465 4563.17 1018.97 4978 979.606C5392.83 938.726 5807.67 802.459 6222.5 817.6C6637.33 832.741 7052.17 999.289 7467 1055.31C7881.83 1109.82 8296.67 1055.31 8711.5 972.035C9126.33 888.761 9541.17 776.72 9748.58 722.213L9956 666.193V0H9748.58C9541.17 0 9126.33 0 8711.5 0C8296.67 0 7881.83 0 7467 0C7052.17 0 6637.33 0 6222.5 0C5807.67 0 5392.83 0 4978 0C4563.17 0 4148.33 0 3733.5 0C3318.67 0 2903.83 0 2489 0C2074.17 0 1659.33 0 1244.5 0C829.667 0 414.833 0 207.417 0H0V666.193Z" fill="#000098"/>
<path d="M0 2801.04L207.417 2937.3C414.833 3073.57 829.667 3346.1 1244.5 3386.98C1659.33 3426.35 2074.17 3235.58 2489 3099.31C2903.83 2963.04 3318.67 2881.28 3733.5 2963.04C4148.33 3043.29 4563.17 3285.54 4978 3338.53C5392.83 3391.53 5807.67 3255.26 6222.5 3146.25C6637.33 3038.75 7052.17 2956.99 7467 2917.62C7881.83 2876.74 8296.67 2876.74 8711.5 2932.76C9126.33 2987.27 9541.17 3099.31 9748.58 3153.82L9956 3209.84V635.911L9748.58 691.932C9541.17 746.439 9126.33 858.48 8711.5 941.754C8296.67 1025.03 7881.83 1079.53 7467 1025.03C7052.17 969.007 6637.33 802.459 6222.5 787.319C5807.67 772.178 5392.83 908.444 4978 949.324C4563.17 988.69 4148.33 934.184 3733.5 920.557C3318.67 908.444 2903.83 938.726 2489 1022C2074.17 1105.27 1659.33 1241.54 1244.5 1185.52C829.667 1131.01 414.833 882.705 207.417 760.065L0 635.911V2801.04Z" fill="#0041BF"/>
<path d="M0 3860.89L207.417 4024.41C414.833 4189.44 829.667 4516.48 1244.5 4477.12C1659.33 4436.24 2074.17 4027.44 2489 3891.17C2903.83 3754.9 3318.67 3891.17 3733.5 4027.44C4148.33 4163.7 4563.17 4299.97 4978 4352.96C5392.83 4405.96 5807.67 4375.67 6222.5 4239.41C6637.33 4103.14 7052.17 3860.89 7467 3820.01C7881.83 3780.64 8296.67 3941.13 8711.5 4062.26C9126.33 4183.39 9541.17 4265.15 9748.58 4304.51L9956 4345.39V3179.56L9748.58 3123.54C9541.17 3069.03 9126.33 2956.99 8711.5 2902.48C8296.67 2846.46 7881.83 2846.46 7467 2887.34C7052.17 2926.71 6637.33 3008.47 6222.5 3115.96C5807.67 3224.98 5392.83 3361.24 4978 3308.25C4563.17 3255.26 4148.33 3013.01 3733.5 2932.76C3318.67 2851 2903.83 2932.76 2489 3069.03C2074.17 3205.29 1659.33 3396.07 1244.5 3356.7C829.667 3315.82 414.833 3043.29 207.417 2907.02L0 2770.76V3860.89Z" fill="#0071DF"/>
<path d="M0 7131.29L207.417 7063.16C414.833 6995.02 829.667 6858.76 1244.5 6802.73C1659.33 6748.23 2074.17 6772.45 2489 6854.21C2903.83 6934.46 3318.67 7070.73 3733.5 7111.61C4148.33 7150.97 4563.17 7096.47 4978 6975.34C5392.83 6854.21 5807.67 6666.47 6222.5 6530.2C6637.33 6393.93 7052.17 6309.15 7467 6265.24C7881.83 6222.84 8296.67 6222.84 8711.5 6318.23C9126.33 6415.13 9541.17 6605.91 9748.58 6702.81L9956 6798.19V4315.11L9748.58 4274.23C9541.17 4234.86 9126.33 4153.1 8711.5 4031.98C8296.67 3910.85 7881.83 3750.36 7467 3789.73C7052.17 3830.61 6637.33 4072.86 6222.5 4209.13C5807.67 4345.39 5392.83 4375.67 4978 4322.68C4563.17 4269.69 4148.33 4133.42 3733.5 3997.16C3318.67 3860.89 2903.83 3724.62 2489 3860.89C2074.17 3997.16 1659.33 4405.96 1244.5 4446.84C829.667 4486.2 414.833 4159.16 207.417 3994.13L0 3830.61V7131.29Z" fill="#009DF5"/>
<path d="M0 8191.14H207.417C414.833 8191.14 829.667 8191.14 1244.5 8191.14C1659.33 8191.14 2074.17 8191.14 2489 8191.14C2903.83 8191.14 3318.67 8191.14 3733.5 8191.14C4148.33 8191.14 4563.17 8191.14 4978 8191.14C5392.83 8191.14 5807.67 8191.14 6222.5 8191.14C6637.33 8191.14 7052.17 8191.14 7467 8191.14C7881.83 8191.14 8296.67 8191.14 8711.5 8191.14C9126.33 8191.14 9541.17 8191.14 9748.58 8191.14H9956V6767.91L9748.58 6672.52C9541.17 6575.62 9126.33 6384.85 8711.5 6287.95C8296.67 6192.56 7881.83 6192.56 7467 6234.96C7052.17 6278.86 6637.33 6363.65 6222.5 6499.92C5807.67 6636.19 5392.83 6823.93 4978 6945.06C4563.17 7066.18 4148.33 7120.69 3733.5 7081.32C3318.67 7040.44 2903.83 6904.18 2489 6823.93C2074.17 6742.17 1659.33 6717.95 1244.5 6772.45C829.667 6828.47 414.833 6964.74 207.417 7032.87L0 7101.01V8191.14Z" fill="#00C6FF"/>
</g>
<defs>
<clipPath id="clip0_23_176">
<rect width="9956" height="8176" fill="white"/>
</clipPath>
</defs>
</svg>
