<svg id="visual" viewBox="0 0 960 540" width="960" height="540" xmlns="http://www.w3.org/2000/svg" xmlns:xlink="http://www.w3.org/1999/xlink" version="1.1"><rect x="0" y="0" width="960" height="540" fill="#001220"></rect><defs><linearGradient id="grad1_0" x1="43.8%" y1="0%" x2="100%" y2="100%"><stop offset="14.444444444444446%" stop-color="#001220" stop-opacity="1"></stop><stop offset="85.55555555555554%" stop-color="#001220" stop-opacity="1"></stop></linearGradient></defs><defs><linearGradient id="grad2_0" x1="0%" y1="0%" x2="56.3%" y2="100%"><stop offset="14.444444444444446%" stop-color="#001220" stop-opacity="1"></stop><stop offset="85.55555555555554%" stop-color="#001220" stop-opacity="1"></stop></linearGradient></defs><g transform="translate(960, 0)"><path d="M0 216C-33.2 217.7 -66.4 219.4 -82.7 199.6C-98.9 179.8 -98.3 138.5 -118.1 118.1C-137.8 97.7 -178 98.1 -197.7 81.9C-217.4 65.7 -216.7 32.8 -216 0L0 0Z" fill="#FFC700"></path></g><g transform="translate(0, 540)"><path d="M0 -216C19.7 -193.2 39.5 -170.4 67.7 -163.5C96 -156.6 132.7 -165.6 152.7 -152.7C172.8 -139.9 176.1 -105.2 183.9 -76.2C191.6 -47.1 203.8 -23.5 216 0L0 0Z" fill="#FFC700"></path></g></svg>