<svg width="9956" height="7117" viewBox="0 0 9956 7117" fill="none" xmlns="http://www.w3.org/2000/svg">
<g clip-path="url(#clip0_31_278)">
<path d="M9975 0H-174V7221H9975V0Z" fill="#00F0FF"/>
<g filter="url(#filter0_f_31_278)">
<path d="M4988.46 6228.11C7220.55 6228.11 9030.02 4322.37 9030.02 1971.52C9030.02 -379.327 7220.55 -2285.07 4988.46 -2285.07C2756.37 -2285.07 946.901 -379.327 946.901 1971.52C946.901 4322.37 2756.37 6228.11 4988.46 6228.11Z" fill="#8F00FF"/>
<path d="M428.175 5947.82C2660.27 5947.82 4469.73 4042.08 4469.73 1691.23C4469.73 -659.615 2660.27 -2565.36 428.175 -2565.36C-1803.92 -2565.36 -3613.38 -659.615 -3613.38 1691.23C-3613.38 4042.08 -1803.92 5947.82 428.175 5947.82Z" fill="#00F0FF"/>
<path d="M7229.13 8614.13C9461.22 8614.13 11270.7 6708.39 11270.7 4357.54C11270.7 2006.69 9461.22 100.953 7229.13 100.953C4997.04 100.953 3187.57 2006.69 3187.57 4357.54C3187.57 6708.39 4997.04 8614.13 7229.13 8614.13Z" fill="#8F00FF"/>
<path d="M1890.76 4367.04C4122.85 4367.04 5932.32 2461.3 5932.32 110.453C5932.32 -2240.4 4122.85 -4146.14 1890.76 -4146.14C-341.332 -4146.14 -2150.8 -2240.4 -2150.8 110.453C-2150.8 2461.3 -341.332 4367.04 1890.76 4367.04Z" fill="#8F00FF"/>
<path d="M4902.76 9378.99C7134.85 9378.99 8944.31 7473.25 8944.31 5122.4C8944.31 2771.55 7134.85 865.809 4902.76 865.809C2670.67 865.809 861.198 2771.55 861.198 5122.4C861.198 7473.25 2670.67 9378.99 4902.76 9378.99Z" fill="#00F0FF"/>
<path d="M671.75 9490.63C2903.84 9490.63 4713.31 7584.89 4713.31 5234.04C4713.31 2883.19 2903.84 977.449 671.75 977.449C-1560.34 977.449 -3369.81 2883.19 -3369.81 5234.04C-3369.81 7584.89 -1560.34 9490.63 671.75 9490.63Z" fill="#8F00FF"/>
</g>
</g>
<defs>
<filter id="filter0_f_31_278" x="-6839.38" y="-7372.14" width="21336.1" height="20088.8" filterUnits="userSpaceOnUse" color-interpolation-filters="sRGB">
<feFlood flood-opacity="0" result="BackgroundImageFix"/>
<feBlend mode="normal" in="SourceGraphic" in2="BackgroundImageFix" result="shape"/>
<feGaussianBlur stdDeviation="1613" result="effect1_foregroundBlur_31_278"/>
</filter>
<clipPath id="clip0_31_278">
<rect width="10149" height="7221" fill="white" transform="translate(-174)"/>
</clipPath>
</defs>
</svg>
